<svg xmlns="http://www.w3.org/2000/svg" xmlns:xlink="http://www.w3.org/1999/xlink" width="80" height="38.705" viewBox="0 0 80 38.705"><defs><clipPath id="a"><rect width="80" height="38.705" fill="#fff"/></clipPath></defs><g clip-path="url(#a)"><path d="M19.049,19.425l12.987-7.5A6.391,6.391,0,0,0,25.649.855L3.2,13.816Z" fill="#ea4335"/><path d="M28.83,38.7a6.391,6.391,0,0,0,3.2-11.927L9.593,13.816A6.391,6.391,0,1,0,3.206,24.888L25.649,37.85a6.356,6.356,0,0,0,3.189.855Z" fill="#4285f4"/><path d="M51.162,38.7a6.356,6.356,0,0,0,3.189-.855L76.794,24.888,61.148,19.16,47.956,26.778a6.391,6.391,0,0,0,3.2,11.927Z" fill="#fbbc04"/><path d="M73.6,25.743a6.391,6.391,0,0,0,3.2-11.927L54.351.855a6.391,6.391,0,0,0-6.387,11.072L70.407,24.888A6.356,6.356,0,0,0,73.6,25.743Z" fill="#0f9d58"/></g></svg>