<svg xmlns="http://www.w3.org/2000/svg" width="40.04" height="50" viewBox="0 0 40.04 50"><path d="M20.006,25a5,5,0,1,0-5-5,5.014,5.014,0,0,0,5,5Zm0,18.374a68.773,68.773,0,0,0,11.313-12.72A19.4,19.4,0,0,0,35.005,20.5a15.1,15.1,0,0,0-4.35-11.157,14.487,14.487,0,0,0-10.65-4.35,14.494,14.494,0,0,0-10.65,4.35A15.109,15.109,0,0,0,5.006,20.5,19.4,19.4,0,0,0,8.693,30.655a68.773,68.773,0,0,0,11.313,12.72Zm0,6.625A83.042,83.042,0,0,1,4.976,34.091Q.007,26.749.007,20.5A19.331,19.331,0,0,1,6.04,5.562,19.973,19.973,0,0,1,20.006,0,19.973,19.973,0,0,1,33.973,5.562,19.331,19.331,0,0,1,40.006,20.5q0,6.25-4.968,13.593A83.114,83.114,0,0,1,20.006,50Z" transform="translate(0.014 0)" fill="#ea4335"/></svg>