<svg xmlns="http://www.w3.org/2000/svg" width="26.667" height="33.333" viewBox="0 0 26.667 33.333"><path d="M13.333,16.667a3.343,3.343,0,0,0,3.333-3.333A3.34,3.34,0,0,0,13.333,10,3.343,3.343,0,0,0,10,13.333a3.346,3.346,0,0,0,3.333,3.333Zm0,12.25a45.85,45.85,0,0,0,7.542-8.48,12.936,12.936,0,0,0,2.458-6.77,10.07,10.07,0,0,0-2.9-7.438,9.658,9.658,0,0,0-7.1-2.9,9.663,9.663,0,0,0-7.1,2.9,10.073,10.073,0,0,0-2.9,7.438,12.936,12.936,0,0,0,2.458,6.77A45.85,45.85,0,0,0,13.333,28.917Zm0,4.417A55.363,55.363,0,0,1,3.313,22.728Q0,17.833,0,13.667A12.888,12.888,0,0,1,4.022,3.708,13.316,13.316,0,0,1,13.333,0a13.316,13.316,0,0,1,9.312,3.708,12.888,12.888,0,0,1,4.022,9.958q0,4.167-3.312,9.062A55.411,55.411,0,0,1,13.333,33.333Z" fill="#ea4335"/></svg>