<svg width="33" height="32" viewBox="0 0 33 32" fill="none" xmlns="http://www.w3.org/2000/svg">
<path fill-rule="evenodd" clip-rule="evenodd" d="M32.1998 15.9799C32.2019 24.8511 25.0576 31.9999 16.1904 31.9999C7.37492 31.9999 0.20101 24.8215 0.199952 15.9999C0.197839 7.18476 7.36963 0.0137625 16.1967 1.68219e-05C25.0185 -0.0126715 32.1966 7.15409 32.1987 15.9788L32.1998 15.9799ZM16.1988 5.79751C15.6827 5.79751 15.1664 5.79704 14.6501 5.79657H14.6499C13.6173 5.79563 12.5845 5.79469 11.5522 5.79751C8.42664 5.80702 5.98601 8.23894 5.98178 11.3507C5.97755 14.4298 5.97967 17.5098 5.98178 20.5889C5.98284 23.7334 8.33785 26.1675 11.4898 26.2066C14.6397 26.2447 17.7907 26.2457 20.9406 26.2066C24.0365 26.1675 26.4063 23.7789 26.4391 20.6787C26.4729 17.5469 26.4772 14.4139 26.4391 11.282C26.4011 8.17444 23.952 5.80385 20.8444 5.79645C19.812 5.79363 18.7791 5.79457 17.7464 5.79551C17.2301 5.79598 16.7139 5.79645 16.1978 5.79645L16.1988 5.79751ZM24.645 15.9957C24.645 16.474 24.6456 16.9523 24.6462 17.4306C24.6476 18.4663 24.649 19.5019 24.6439 20.537C24.6312 22.7797 23.0209 24.4017 20.7761 24.4112C17.7468 24.4228 14.7174 24.4228 11.6881 24.4112C9.40633 24.4027 7.78751 22.7998 7.77482 20.5233C7.75791 17.513 7.75791 14.5027 7.77482 11.4935C7.78751 9.20851 9.39892 7.60027 11.6754 7.59075C14.7047 7.57701 17.7341 7.57595 20.7634 7.59075C23.0409 7.60238 24.6365 9.22543 24.6439 11.5072C24.6472 12.4421 24.6464 13.377 24.6455 14.3119C24.6451 14.8732 24.6446 15.4344 24.645 15.9957ZM16.2041 21.5743C19.2725 21.5849 21.8028 19.0937 21.8324 16.0327C21.8609 13.0213 19.2937 10.4414 16.2538 10.4266C13.1885 10.4118 10.6688 12.9135 10.6561 15.983C10.6434 19.0726 13.1155 21.5637 16.203 21.5743H16.2041ZM21.6717 11.724C22.3315 11.7366 22.8971 11.19 22.8961 10.5408C22.895 9.91588 22.3515 9.37134 21.7214 9.36077C21.0436 9.35019 20.5054 9.87359 20.5075 10.5418C20.5096 11.1911 21.0214 11.7102 21.6717 11.7229V11.724ZM16.2145 19.6837C18.2266 19.6816 19.8687 18.03 19.8687 16.0073V16.0084C19.8687 14.0248 18.2298 12.3806 16.2356 12.3658C14.2277 12.3499 12.5539 14.0078 12.5539 16.0137C12.5529 18.0311 14.2034 19.6848 16.2145 19.6837Z" fill="#202124"/>
</svg>
