<svg width="33" height="32" viewBox="0 0 33 32" fill="none" xmlns="http://www.w3.org/2000/svg">
<path d="M32.3996 16.0084C32.4155 24.8067 25.2279 31.9904 16.3992 31.9989C7.57039 32.0073 0.407182 24.8554 0.399784 16.0222C0.393444 7.18586 7.52494 0.0243808 16.359 6.16191e-05C25.192 -0.0242576 32.3838 7.15308 32.3996 16.0074V16.0084ZM8.09352 8.88609C6.9997 11.0981 7.56194 12.8522 9.36278 14.3325C9.32156 14.378 9.2814 14.4245 9.24018 14.47C8.68006 14.3177 8.11889 14.1665 7.56722 14.0164C7.52178 15.5918 8.31757 16.6693 10.4735 18.028C9.95355 18.0523 9.43359 18.0756 8.91468 18.0999C9.37969 19.5231 10.2674 20.2368 12.4952 20.9463C10.892 22.3854 8.9411 22.526 6.85069 22.6349C7.07685 22.7766 7.18359 22.8548 7.29984 22.914C9.05418 23.8043 10.9089 24.2812 12.882 24.3161C19.6204 24.4345 24.8718 19.1985 24.7059 12.5054C24.6985 12.2072 24.7693 12.0317 25.043 11.8752C25.7183 11.4882 26.1971 10.9141 26.5754 10.1888C25.898 10.3685 25.3093 10.526 24.7196 10.6825C25.3104 10.0164 25.8737 9.38305 26.1685 8.48746C25.4795 8.79093 24.8803 9.04152 24.2937 9.31643C23.9185 9.49301 23.6522 9.43063 23.313 9.15994C21.9169 8.04549 20.357 7.8668 18.7612 8.64818C17.1918 9.41688 16.4362 10.7365 16.4763 12.4948C16.4805 12.6841 16.4763 12.8734 16.4763 13.199C15.6995 13.087 14.9471 13.0426 14.2284 12.8639C11.7692 12.2538 9.83518 10.7925 8.09352 8.88503V8.88609Z" fill="#202124"/>
</svg>
