<svg width="32" height="32" viewBox="0 0 32 32" fill="none" xmlns="http://www.w3.org/2000/svg">
<path d="M31.9997 15.983C32.0325 24.7538 24.864 31.9628 16.0744 31.9999C7.23089 32.0369 0.0275566 24.9124 7.90549e-05 16.1014C-0.0273984 7.19743 7.11147 0.00634835 15.9825 4.21368e-06C24.7943 -0.00633993 31.967 7.15197 31.9997 15.983ZM21.2455 13.9222H17.3944C17.3944 12.7782 17.3669 11.7081 17.406 10.6402C17.4261 10.0946 17.7622 9.65367 18.2546 9.44855C18.7133 9.25822 19.2238 9.15671 19.7215 9.10385C20.2542 9.04675 20.7984 9.09116 21.3448 9.09116V5.68435C20.2859 5.63889 19.2671 5.6114 18.2515 5.55007C15.5006 5.38301 13.5676 6.8189 13.128 9.54476C12.9304 10.766 13.0191 12.0338 12.98 13.2804C12.9737 13.4834 12.98 13.6864 12.98 13.9539H9.32658V18.0279H12.9853V28.0633H17.3711V18.0311C17.6301 18.0311 17.8203 18.0311 18.0105 18.0311C18.7492 18.0311 19.489 18.0449 20.2277 18.0174C20.3672 18.0121 20.6008 17.8598 20.6219 17.7456C20.8449 16.5022 21.0341 15.2524 21.2455 13.9233V13.9222Z" fill="#202124"/>
</svg>
